HIERARCHY
ROOT pelvis
{
	OFFSET 0.000000 0.000000 0.726372
	CHANNELS 6 Xposition Yposition Zposition Xrotation Yrotation Zrotation
	JOINT spine
	{
		OFFSET 0.000000 0.000000 0.000000
		CHANNELS 6 Xposition Yposition Zposition Xrotation Yrotation Zrotation
		JOINT spine.001
		{
			OFFSET 0.000000 -0.014005 0.267227
			CHANNELS 3 Xrotation Yrotation Zrotation
			JOINT neck
			{
				OFFSET 0.000000 0.032612 0.265599
				CHANNELS 6 Xposition Yposition Zposition Xrotation Yrotation Zrotation
				JOINT face
				{
					OFFSET 0.000000 0.003636 0.208292
					CHANNELS 6 Xposition Yposition Zposition Xrotation Yrotation Zrotation
					End Site
					{
						OFFSET 0.000000 -0.022751 -0.007803
					}
				}
			}
			JOINT shoulder.L
			{
				OFFSET 0.000000 0.032612 0.265599
				CHANNELS 6 Xposition Yposition Zposition Yrotation Xrotation Zrotation
				JOINT upper_arm.L
				{
					OFFSET 0.167939 0.000000 0.000000
					CHANNELS 6 Xposition Yposition Zposition Xrotation Yrotation Zrotation
					JOINT forearm.L
					{
						OFFSET 0.279234 0.000115 0.000950
						CHANNELS 6 Xposition Yposition Zposition Xrotation Yrotation Zrotation
						End Site
						{
							OFFSET 0.244544 -0.004163 -0.001310
						}
					}
				}
			}
			JOINT shoulder.R
			{
				OFFSET 0.000000 0.032612 0.265599
				CHANNELS 6 Xposition Yposition Zposition Yrotation Xrotation Zrotation
				JOINT upper_arm.R
				{
					OFFSET -0.167939 0.000000 0.000000
					CHANNELS 6 Xposition Yposition Zposition Xrotation Yrotation Zrotation
					JOINT forearm.R
					{
						OFFSET -0.275579 0.000115 0.000950
						CHANNELS 6 Xposition Yposition Zposition Xrotation Yrotation Zrotation
						End Site
						{
							OFFSET -0.242673 -0.004131 -0.001310
						}
					}
				}
			}
		}
	}
	JOINT pelvis.L
	{
		OFFSET 0.000000 0.000000 0.000000
		CHANNELS 6 Xposition Yposition Zposition Yrotation Xrotation Zrotation
		End Site
		{
			OFFSET 0.101522 0.000000 0.000000
		}
	}
	JOINT pelvis.R
	{
		OFFSET 0.000000 0.000000 0.000000
		CHANNELS 6 Xposition Yposition Zposition Yrotation Xrotation Zrotation
		End Site
		{
			OFFSET -0.101522 0.000000 0.000000
		}
	}
	JOINT thigh.L
	{
		OFFSET 0.101522 0.000000 0.000000
		CHANNELS 6 Xposition Yposition Zposition Xrotation Yrotation Zrotation
		JOINT shin.L
		{
			OFFSET 0.018156 0.000000 -0.346438
			CHANNELS 6 Xposition Yposition Zposition Xrotation Yrotation Zrotation
			JOINT foot.L
			{
				OFFSET 0.016285 0.000000 -0.310744
				CHANNELS 3 Xrotation Yrotation Zrotation
				End Site
				{
					OFFSET 0.014621 -0.149079 -0.062601
				}
			}
			JOINT heel.02.L
			{
				OFFSET 0.016285 0.000000 -0.310744
				CHANNELS 3 Xrotation Yrotation Zrotation
				End Site
				{
					OFFSET 0.078147 0.034181 -0.064286
				}
			}
		}
	}
	JOINT thigh.R
	{
		OFFSET -0.101522 0.000000 0.000000
		CHANNELS 6 Xposition Yposition Zposition Xrotation Yrotation Zrotation
		JOINT shin.R
		{
			OFFSET -0.018323 0.000000 -0.349626
			CHANNELS 6 Xposition Yposition Zposition Xrotation Yrotation Zrotation
			JOINT foot.R
			{
				OFFSET -0.016237 0.000000 -0.309811
				CHANNELS 3 Xrotation Yrotation Zrotation
				End Site
				{
					OFFSET -0.016338 -0.166583 -0.069951
				}
			}
			JOINT heel.02.R
			{
				OFFSET -0.016237 0.000000 -0.309811
				CHANNELS 3 Xrotation Yrotation Zrotation
				End Site
				{
					OFFSET -0.081133 0.034181 -0.061868
				}
			}
		}
	}
}
MOTION
Frames: 6
Frame Time: 0.041667
-0.002906 0.046725 0.722450 -0.000000 0.000000 3.299445 0.000000 -0.000000 -0.000000 -9.366970 1.220494 0.164665 9.999920 -0.030580 -0.248981 -0.000000 0.032611 0.265599 5.769975 -3.982223 3.334976 0.000000 0.003636 0.208292 6.458860 0.000000 0.000002 0.000000 0.032611 0.265600 0.382857 0.000158 -0.047080 0.167939 0.000000 0.000000 22.203526 76.422153 -27.995178 0.279234 0.000115 0.000950 3.229831 14.114564 -24.726606 0.000000 0.032611 0.265600 0.433288 0.000203 -0.053278 -0.167939 0.000000 -0.000000 12.193400 -77.977053 15.059734 -0.275579 0.000115 0.000950 2.290742 -12.461760 19.747465 -0.000000 -0.000000 0.000000 -0.078749 -0.000000 0.000123 -0.000000 -0.000000 0.000000 -0.078749 0.000000 0.000000 0.101522 0.000000 0.000140 2.906760 0.054103 0.151000 0.018156 0.000000 -0.346438 -0.923356 2.405216 -0.029040 -8.230233 -5.445259 8.996373 -15.443891 48.392102 38.959139 -0.101522 -0.000000 -0.000140 -0.256714 -1.611086 0.009852 -0.018323 -0.000000 -0.349626 5.913828 -1.630513 -0.226146 -6.787168 6.394096 -11.463531 -26.286688 -53.494014 -46.337038 
-0.001758 0.045729 0.722431 -0.000000 0.000000 3.401894 0.000000 0.000000 -0.000000 -9.771445 1.174966 0.162747 9.999359 -0.088030 -0.717084 -0.000000 0.032611 0.265599 6.811565 -3.883176 2.989618 -0.000000 0.003636 0.208292 5.364377 0.000000 0.000003 0.000000 0.032611 0.265599 0.433694 0.000203 -0.053226 0.167939 -0.000000 -0.000000 21.903964 76.475149 -27.598537 0.279234 0.000115 0.000950 3.182549 14.004504 -24.559128 -0.000000 0.032611 0.265599 0.484125 0.000252 -0.059480 -0.167939 0.000000 -0.000000 12.837415 -77.703299 15.925139 -0.275579 0.000115 0.000950 2.319052 -12.698003 19.587504 0.000000 -0.000000 0.000000 0.387422 0.000000 -0.000026 0.000000 -0.000000 0.000000 0.387388 -0.000000 0.000000 0.101520 -0.000000 -0.000686 2.878636 0.379160 0.141392 0.018156 -0.000000 -0.346438 -0.748107 2.038432 -0.025921 -6.955548 -5.443112 9.507640 -17.218077 49.595455 40.370000 -0.101520 -0.000000 0.000686 -0.118362 -1.659530 0.004492 -0.018323 0.000000 -0.349626 5.887211 -1.789522 -0.216959 -8.162814 6.965867 -11.949753 -25.138993 -53.036248 -46.046840 
-0.000909 0.045034 0.722574 -0.000000 0.000000 3.496957 -0.000000 0.000000 -0.000000 -10.077970 1.128232 0.159351 9.998782 -0.122616 -0.998838 -0.000000 0.032612 0.265600 7.581284 -3.764003 2.607684 0.000000 0.003636 0.208292 4.580877 0.000000 -0.000000 0.000000 0.032611 0.265600 0.462008 0.000228 -0.056807 0.167939 0.000000 0.000000 21.825798 76.477731 -27.500314 0.279234 0.000115 0.000950 3.156391 13.955816 -24.441543 0.000000 0.032611 0.265599 0.512398 0.000282 -0.062969 -0.167939 0.000000 -0.000000 12.943715 -77.528753 16.105108 -0.275579 0.000115 0.000950 2.350976 -12.871456 19.574021 0.000000 0.000000 0.000000 0.691566 0.000000 0.000041 0.000000 0.000000 0.000000 0.691531 -0.000000 0.000000 0.101515 0.000000 -0.001225 2.830199 0.636111 0.132679 0.018156 0.000000 -0.346438 -0.570592 1.749311 -0.021209 -6.146126 -5.411799 9.783729 -18.353036 50.320920 41.285628 -0.101515 0.000000 0.001225 -0.005138 -1.696133 0.000193 -0.018323 0.000000 -0.349626 5.845762 -1.885386 -0.210537 -9.160542 7.377153 -12.273334 -24.470978 -52.775588 -45.947601 
-0.000407 0.044713 0.722783 -0.000000 0.000000 3.590573 -0.000000 0.000000 -0.000000 -10.270349 1.085848 0.155223 9.998653 -0.137868 -1.122918 -0.000000 0.032611 0.265600 8.055348 -3.638517 2.223087 0.000000 0.003636 0.208292 4.118353 -0.000000 -0.000001 -0.000000 0.032612 0.265600 0.474427 0.000243 -0.058305 0.167939 0.000000 -0.000000 21.925773 76.430691 -27.646541 0.279234 0.000115 0.000950 3.153210 13.974865 -24.379131 -0.000000 0.032612 0.265600 0.524858 0.000297 -0.064439 -0.167939 0.000000 0.000000 12.570517 -77.476052 15.658518 -0.275579 0.000115 0.000950 2.385090 -12.950758 19.742074 0.000000 0.000000 0.000000 0.818295 0.000000 0.000043 0.000000 0.000000 0.000000 0.818327 -0.000000 0.000000 0.101512 0.000000 -0.001450 2.757358 0.803370 0.125246 0.018156 0.000000 -0.346438 -0.399190 1.569939 -0.015461 -5.876766 -5.359640 9.792606 -18.701536 50.535262 41.562275 -0.101512 -0.000000 0.001450 0.069732 -1.717676 -0.002611 -0.018323 -0.000000 -0.349626 5.802745 -1.916744 -0.207398 -9.719919 7.591287 -12.416473 -24.328678 -52.742144 -46.062738 
-0.000102 0.044629 0.722822 -0.000000 0.000000 3.681788 -0.000000 -0.000000 -0.000000 -10.394892 1.055847 0.152107 9.998302 -0.153125 -1.247194 -0.000000 0.032611 0.265599 8.383403 -3.522135 1.957085 0.000000 0.003636 0.208292 3.807359 -0.000001 -0.000002 -0.000000 0.032612 0.265600 0.502849 0.000273 -0.061736 0.167939 0.000000 0.000000 21.955003 76.365149 -27.713878 0.279234 0.000115 0.000950 3.154457 14.003503 -24.334292 -0.000000 0.032612 0.265600 0.553239 0.000330 -0.067902 -0.167939 0.000000 -0.000000 12.167405 -77.502901 15.152896 -0.275579 0.000115 0.000950 2.414857 -12.954270 20.001391 0.000000 0.000000 0.000000 0.860785 -0.000001 0.000077 0.000000 0.000000 0.000000 0.860750 -0.000000 0.000000 0.101511 0.000000 -0.001525 2.674480 0.901717 0.119188 0.018156 0.000000 -0.346438 -0.245029 1.485153 -0.009672 -5.857825 -5.306068 9.691949 -18.595644 50.461045 41.443969 -0.101511 -0.000000 0.001525 0.106720 -1.732673 -0.003983 -0.018323 -0.000000 -0.349626 5.779228 -1.909686 -0.206910 -9.999679 7.669972 -12.434043 -24.439919 -52.818751 -46.280850 
0.000143 0.044660 0.722584 -0.000000 0.000000 3.746645 -0.000000 -0.000000 -0.000000 -10.487293 1.037542 0.150323 9.997742 -0.176242 -1.435641 -0.000000 0.032611 0.265599 8.663247 -3.423557 1.877083 0.000000 0.003636 0.208292 3.545544 0.000000 -0.000000 0.000000 0.032612 0.265599 0.560661 0.000336 -0.068779 0.167939 -0.000000 0.000000 21.774155 76.301525 -27.519262 0.279234 0.000115 0.000950 3.118592 13.916702 -24.210058 0.000000 0.032612 0.265599 0.611052 0.000399 -0.074996 -0.167939 0.000000 -0.000000 12.063883 -77.548390 15.012921 -0.275579 0.000115 0.000950 2.436963 -12.942954 20.218275 0.000000 -0.000000 0.000000 0.895101 0.000000 -0.000006 0.000000 -0.000000 0.000000 0.895099 -0.000000 0.000000 0.101510 0.000000 -0.001586 2.597498 0.964989 0.114325 0.018156 -0.000000 -0.346438 -0.112871 1.452990 -0.004486 -5.839249 -5.269314 9.625185 -18.426681 50.342524 41.257884 -0.101510 -0.000000 0.001586 0.112093 -1.754391 -0.004162 -0.018323 0.000000 -0.349626 5.780788 -1.870650 -0.208935 -10.136306 7.672762 -12.377043 -24.580965 -52.898972 -46.457994 
